<svg width="310" height="310" viewBox="0 0 310 310" fill="none" xmlns="http://www.w3.org/2000/svg">
<path d="M157 275.833C129.007 268.785 105.898 252.724 87.6719 227.651C69.4462 202.578 60.3333 174.736 60.3333 144.125V70.4167L157 34.1667L253.667 70.4167V144.125C253.667 174.736 244.554 202.578 226.328 227.651C208.102 252.724 184.993 268.785 157 275.833ZM157 250.458C177.944 243.813 195.264 230.521 208.958 210.583C222.653 190.646 229.5 168.493 229.5 144.125V87.0313L157 59.8438L84.5 87.0313V144.125C84.5 168.493 91.3472 190.646 105.042 210.583C118.736 230.521 136.056 243.813 157 250.458Z" fill="white"/>
<path d="M115.333 176.167V167.833H198.667V176.167H115.333ZM120.125 150.958L114.708 147.833L118.25 141.583H111.167V135.333H118.25L114.708 129.292L120.125 126.167L123.667 132.208L127.208 126.167L132.625 129.292L129.083 135.333H136.167V141.583H129.083L132.625 147.833L127.208 150.958L123.667 144.708L120.125 150.958ZM153.458 150.958L148.042 147.833L151.583 141.583H144.5V135.333H151.583L148.042 129.292L153.458 126.167L157 132.208L160.542 126.167L165.958 129.292L162.417 135.333H169.5V141.583H162.417L165.958 147.833L160.542 150.958L157 144.708L153.458 150.958ZM186.792 150.958L181.375 147.833L184.917 141.583H177.833V135.333H184.917L181.375 129.292L186.792 126.167L190.333 132.208L193.875 126.167L199.292 129.292L195.75 135.333H202.833V141.583H195.75L199.292 147.833L193.875 150.958L190.333 144.708L186.792 150.958Z" fill="white"/>
</svg>
